<svg version="1.2" xmlns="http://www.w3.org/2000/svg" viewBox="0 0 500 500" width="500" height="500">
	<title>matriks-logo</title>
	<style>
		.s0 { fill: #231f20 } 
		.s1 { fill: #ec1c24 } 
	</style>
	<g id="Layer 1">
		<g id="&lt;Group&gt;">
			<g id="&lt;Group&gt;">
				<path id="&lt;Path&gt;" class="s0" d="m357.8 445.47l108.01-186.93-46.36-80.15-107.89 186.93h-106.91l46.24 80.15z"/>
				<path id="&lt;Path&gt; copy" class="s0" d="m357.8 445.47l108.01-186.93-46.36-80.15-107.89 186.93h-106.91l46.24 80.15z"/>
				<path id="&lt;Path&gt;" class="s1" d="m357.8 71.61h-215.78l-46.37 80.15h215.91l53.51 92.6 46.24-80.15z"/>
				<path id="&lt;Path&gt;" class="s0" d="m34 258.54l108.02 186.93h92.47l-107.89-186.93 53.52-92.6h-92.61z"/>
			</g>
		</g>
		<path class="s1" d="m214 234.68c0-4.6 3.72-8.32 8.33-8.32 4.6 0 8.32 3.72 8.32 8.32v2.03c0 7.2-0.62 14.38-1.85 21.46l-21.95 6.58c-10.56 3.17-17.79 12.9-17.79 23.93v8.43h-18.73c-3.46 0-6.24 2.78-6.24 6.24 0 3.46 2.78 6.24 6.24 6.24h18.86c1.09 9.37 9.05 16.65 18.73 16.65 6.76 0 13-3.62 16.36-9.49l3.61-6.33c6.97-12.22 12.1-25.41 15.19-39.14l24.56-7.36-3.25 9.75c-0.86 2.55-0.42 5.33 1.14 7.49 1.56 2.16 4.06 3.46 6.74 3.46h33.29c4.61 0 8.32-3.72 8.32-8.32 0-4.61-3.71-8.33-8.32-8.33h-21.74l4.68-14.02c0.99-2.93 0.23-6.19-1.93-8.42-2.16-2.24-5.38-3.07-8.37-2.19l-31.84 9.57q0.94-8.06 0.94-16.2v-2.03c0-13.79-11.19-24.97-24.97-24.97-13.79 0-24.97 11.18-24.97 24.97v8.32c0 4.61 3.71 8.33 8.32 8.33 4.6 0 8.32-3.72 8.32-8.33zm-2.39 46.04l12.74-3.82c-2.7 8.79-6.37 17.27-10.95 25.28l-3.61 6.32c-0.39 0.68-1.12 1.12-1.93 1.12-1.22 0-2.21-0.99-2.21-2.21v-18.7c0-3.67 2.42-6.92 5.93-7.99zm112.68 28.88c3.46 0 6.25-2.79 6.25-6.25 0-3.46-2.79-6.24-6.25-6.24h-76.18q-2.54 6.36-5.62 12.49z"/>
		<path class="s0" d="m418.27 64.28l1.27-2.17c1.94-3.29 5.1-5.68 8.8-6.65 3.7-0.96 7.63-0.41 10.92 1.52 3.3 1.94 5.69 5.1 6.65 8.8 0.97 3.7 0.42 7.63-1.51 10.92l-1.28 2.16c1.89 1.26 3.52 2.86 4.81 4.72 1.28 1.87 2.21 3.96 2.71 6.16 0.51 2.21 0.6 4.5 0.25 6.73-0.34 2.24-1.11 4.4-2.25 6.35l-87.91 149.87q-0.2 0.34-0.45 0.66-0.25 0.32-0.54 0.6-0.3 0.28-0.62 0.52-0.33 0.24-0.68 0.43l-43.2 23.59c-0.9 0.49-1.92 0.74-2.95 0.73-1.03-0.02-2.03-0.3-2.92-0.82-0.89-0.53-1.63-1.27-2.15-2.16-0.51-0.89-0.79-1.9-0.8-2.93l-0.49-49.21q0-0.4 0.05-0.8 0.05-0.4 0.15-0.79 0.1-0.39 0.26-0.76 0.15-0.38 0.36-0.72l82.35-140.39q-0.99-0.37-2.04-0.38-1.06-0.01-2.05 0.34-0.99 0.36-1.81 1.03-0.81 0.68-1.34 1.59l-28.12 47.94c-0.81 1.36-2.12 2.35-3.65 2.75-1.53 0.4-3.16 0.17-4.52-0.63-1.37-0.8-2.36-2.11-2.76-3.64-0.4-1.53-0.17-3.16 0.63-4.52l28.13-47.95c1.15-1.95 2.66-3.67 4.45-5.06 1.78-1.4 3.82-2.44 6-3.07 2.17-0.63 4.45-0.85 6.71-0.63 2.25 0.22 4.45 0.86 6.46 1.89 1.21-1.81 2.74-3.39 4.52-4.66 1.77-1.27 3.76-2.2 5.87-2.75 2.11-0.55 4.31-0.71 6.47-0.47 2.17 0.23 4.28 0.87 6.22 1.86zm-5.13 10.79q-1.03-0.6-2.2-0.77-1.18-0.16-2.33 0.14-1.15 0.3-2.09 1.01-0.95 0.72-1.55 1.74l-87.1 148.45 0.37 37.61 33.01-18.02 87.11-148.45q0.6-1.03 0.76-2.2 0.17-1.18-0.13-2.33-0.3-1.15-1.02-2.1-0.72-0.95-1.74-1.55z"/>
	</g>
</svg>